<svg xmlns="http://www.w3.org/2000/svg" viewBox="0 0 600 300" width="600" height="300">
  <!-- маш бүдэг сүлжээ шугам -->
  <g stroke="#0F1622" stroke-opacity="0.035" stroke-width="1">
    <line x1="0" y1="60" x2="600" y2="60"/>
    <line x1="0" y1="120" x2="600" y2="120"/>
    <line x1="0" y1="180" x2="600" y2="180"/>
    <line x1="0" y1="240" x2="600" y2="240"/>
    <line x1="100" y1="0" x2="100" y2="300"/>
    <line x1="200" y1="0" x2="200" y2="300"/>
    <line x1="300" y1="0" x2="300" y2="300"/>
    <line x1="400" y1="0" x2="400" y2="300"/>
    <line x1="500" y1="0" x2="500" y2="300"/>
  </g>

  <!-- бүдэг үнийн шугам (жишиг chart) -->
  <polyline
    points="0,210 30,190 60,205 90,160 120,175 150,120 180,140 210,95 240,110 270,70 300,90 330,60 360,85 390,55 420,75 450,40 480,65 510,30 540,50 570,20 600,45"
    fill="none" stroke="#B8862B" stroke-opacity="0.06" stroke-width="2.5" stroke-linejoin="round" stroke-linecap="round"/>

  <polyline
    points="0,250 40,240 80,255 120,225 160,235 200,200 240,215 280,180 320,195 360,160 400,175 440,145 480,165 520,130 560,150 600,120"
    fill="none" stroke="#0F1622" stroke-opacity="0.04" stroke-width="2" stroke-linejoin="round" stroke-linecap="round"/>
</svg>
